# xmcd
#
# Track frame offsets: 
#        150
#        26168
#        42788
#        73015
#        96300
#        111775
#        130500
#        152813
#        157923
#        175218
#        195923
#        199403
#        217728
#
# Disc length: 3123 seconds
#
# Revision: 0
# Processed by: cddbd v1.5.2PL0 Copyright (c) Steve Scherf et al.
# Submitted via: ExactAudioCopy v1.3
#
DISCID=a90c310d
DTITLE=村上秀一 近藤房之助 - A BIG TRAIN COMING
DYEAR=2013
DGENRE=Jazz
TTITLE0=CHOICE OF COLORS
TTITLE1=YOU'RE SO GOOD TO ME
TTITLE2=BILLY JACK
TTITLE3=MOVE ON UP
TTITLE4=GYPSY WOMAN
TTITLE5=YOU MUST BELIEVE ME
TTITLE6=FOOL FOR YOU
TTITLE7=I'VE BEEN TRYING
TTITLE8=GIVE ME YOUR LOVE
TTITLE9=TRIPPING OUT
TTITLE10=FUTURE SHOCK
TTITLE11=SUPERFLY
TTITLE12=SWEET EXORCIST
EXTD=
EXTT0=
EXTT1=
EXTT2=
EXTT3=
EXTT4=
EXTT5=
EXTT6=
EXTT7=
EXTT8=
EXTT9=
EXTT10=
EXTT11=
EXTT12=
PLAYORDER=
